<svg width="19" height="19" viewBox="0 0 19 19" fill="none" xmlns="http://www.w3.org/2000/svg">
<path d="M6.21289 12.5913C6.27219 12.5914 6.32916 12.6158 6.37109 12.6577C6.41296 12.6997 6.43652 12.7566 6.43652 12.8159C6.4365 12.8603 6.42362 12.9035 6.39941 12.9399L6.37109 12.9741L2.15723 17.186L1.39551 17.9487H6.21289C6.2718 17.9488 6.32837 17.9716 6.37012 18.0132C6.41196 18.055 6.43554 18.1122 6.43555 18.1714C6.43555 18.2306 6.41197 18.2877 6.37012 18.3296C6.32837 18.3712 6.27181 18.3949 6.21289 18.395H0.857422C0.798347 18.395 0.741047 18.3713 0.699219 18.3296C0.657369 18.2877 0.633789 18.2306 0.633789 18.1714V12.8159C0.633789 12.7567 0.657369 12.6996 0.699219 12.6577C0.741051 12.616 0.798316 12.5923 0.857422 12.5923C0.91635 12.5924 0.972928 12.6161 1.01465 12.6577C1.0565 12.6996 1.08008 12.7567 1.08008 12.8159V17.6333L1.8418 16.8706L6.05371 12.6567C6.09571 12.6148 6.15352 12.5913 6.21289 12.5913ZM12.9072 12.5913C12.9666 12.5913 13.0235 12.6157 13.0654 12.6577L17.2773 16.8706L18.04 17.6333V12.8159C18.04 12.7568 18.0627 12.6996 18.1045 12.6577C18.1463 12.6159 18.2035 12.5923 18.2627 12.5923C18.3219 12.5923 18.379 12.6159 18.4209 12.6577C18.4627 12.6996 18.4863 12.7568 18.4863 12.8159V18.1714C18.4863 18.2306 18.4627 18.2877 18.4209 18.3296C18.379 18.3714 18.3219 18.395 18.2627 18.395H12.9072C12.8481 18.395 12.7909 18.3714 12.749 18.3296C12.7072 18.2877 12.6836 18.2306 12.6836 18.1714C12.6836 18.1122 12.7072 18.055 12.749 18.0132C12.7909 17.9714 12.8481 17.9487 12.9072 17.9487H17.7246L16.9619 17.186L12.749 12.9741C12.707 12.9321 12.6836 12.8753 12.6836 12.8159C12.6836 12.7565 12.707 12.6997 12.749 12.6577C12.791 12.6157 12.8478 12.5913 12.9072 12.5913ZM0.857422 0.54248H6.21289C6.27191 0.542564 6.32835 0.566195 6.37012 0.60791C6.41197 0.64976 6.43555 0.706931 6.43555 0.766113C6.43542 0.825126 6.41186 0.881601 6.37012 0.92334C6.32835 0.965066 6.27192 0.988686 6.21289 0.98877H1.39551L2.15723 1.75049L6.37109 5.96338V5.9624C6.4131 6.00441 6.43652 6.06217 6.43652 6.12158C6.43644 6.18087 6.41302 6.23785 6.37109 6.27979C6.32916 6.32172 6.27218 6.34513 6.21289 6.34521C6.15363 6.34521 6.09666 6.32159 6.05469 6.27979L1.8418 2.06592L1.08008 1.3042V6.12158C1.07999 6.18061 1.05638 6.23704 1.01465 6.27881C0.972909 6.32055 0.916435 6.34411 0.857422 6.34424C0.798239 6.34424 0.741068 6.32066 0.699219 6.27881C0.657503 6.23704 0.633874 6.18061 0.633789 6.12158V0.766113C0.633789 0.706931 0.65737 0.649759 0.699219 0.60791C0.741068 0.566061 0.798239 0.54248 0.857422 0.54248ZM12.9072 0.54248H18.2627C18.3219 0.54248 18.379 0.56606 18.4209 0.60791C18.4626 0.649739 18.4863 0.707034 18.4863 0.766113V6.12158C18.4862 6.1805 18.4625 6.23706 18.4209 6.27881C18.379 6.32066 18.3219 6.34424 18.2627 6.34424C18.2035 6.34423 18.1463 6.32065 18.1045 6.27881C18.0629 6.23707 18.0401 6.18049 18.04 6.12158V1.3042L17.2773 2.06592L13.0654 6.27979C13.0235 6.3217 12.9665 6.34518 12.9072 6.34521C12.8479 6.34521 12.791 6.32165 12.749 6.27979C12.7071 6.23785 12.6837 6.18087 12.6836 6.12158C12.6836 6.06222 12.7061 6.0044 12.748 5.9624L12.749 5.96338L16.9619 1.75049L17.7246 0.98877H12.9072C12.848 0.98877 12.7909 0.965188 12.749 0.92334C12.7074 0.881621 12.6837 0.825038 12.6836 0.766113C12.6836 0.707011 12.7073 0.649742 12.749 0.60791C12.7909 0.566062 12.848 0.54248 12.9072 0.54248Z" fill="#8D95A8" stroke="#555C6A" stroke-width="0.892603"/>
</svg>
